<?xml version="1.0" encoding="UTF-8" standalone="no"?>
<!DOCTYPE svg PUBLIC "-//W3C//DTD SVG 1.1//EN" "http://www.w3.org/Graphics/SVG/1.1/DTD/svg11.dtd">
<svg width="100%" height="100%" viewBox="0 0 512 512" version="1.1" xmlns="http://www.w3.org/2000/svg" xmlns:xlink="http://www.w3.org/1999/xlink" xml:space="preserve" xmlns:serif="http://www.serif.com/" style="fill-rule:evenodd;clip-rule:evenodd;stroke-linejoin:round;stroke-miterlimit:2;">
    <g>
        <path d="M358,209.2C358,208.2 357.1,206.8 356,206C354.9,205.2 354,203.8 354,202.8C354,201.8 353.3,201 352.5,201C351.7,201 351,200.1 351,199C351,197.9 350.3,197 349.5,197C348.6,197 348,196.1 348,194.5C348,192.9 347.4,192 346.4,192C345.5,192 344.6,191.1 344.3,190C344,189 342.7,187.4 341.5,186.6C340.2,185.7 339,184 338.8,182.8C338.4,179.9 333.1,179 331,181.4C330.3,182.3 328.9,183 327.8,183C324.9,183 316,191.1 316,193.8C316,195.9 315.6,196 309.5,196C305.9,196 303,195.6 303,195.1C303,194.6 302.2,194 301.2,193.7C299.2,193.2 298,189.3 298,183C298,178.8 298.7,177.8 308.9,167.2C312.3,163.7 315,160.3 315,159.6C315,158.9 310.2,153.9 304.3,148.4C298.5,143 292.7,137.6 291.6,136.5C290.4,135.4 288.3,133.6 286.9,132.5C285.5,131.4 278.3,125.7 271,119.8C263.6,113.8 256.9,109 256,109C253.6,109 220.8,135.6 209.1,147C206.6,149.5 202.8,153 200.7,154.8C197.4,157.6 196.9,158.5 197.5,161C198.3,164.5 206.3,173.8 209.7,175.1C211,175.6 212,176.6 212,177.4C212,178.1 212.7,179 213.5,179.4C215.4,180.1 215.4,184.2 213.6,189.5C212.3,193.1 211.8,193.5 206.9,194.7C199,196.5 195.9,196.4 195.3,194.1C194.8,192.1 184.8,183 183.2,183C182.7,183 181.7,182.3 181,181.5C180.3,180.7 178.3,180 176.4,180C173.6,180 173.1,180.4 172.8,182.8C172.6,184.4 171.6,185.9 170.3,186.5C169,187 168,188.3 168,189.3C168,190.4 167.1,191.4 166,191.7C164.9,192 164,193.1 164,194.1C164,195.2 163.3,196 162.5,196C161.7,196 161,196.9 161,198C161,199.1 160.3,200 159.5,200C158.7,200 158,200.9 158,202C158,203.1 157.6,204 157,204C156.5,204 156,204.6 156,205.4C156,206.2 154.5,207 152.3,207.4C148.1,208.1 5,208.2 5,207.6C5,207.3 5.7,204.1 6.6,200.3C23.6,126.1 72.9,62.6 139.8,28.7C177.6,9.5 213.3,0.9 255.5,0.9C298.8,0.8 336,9.8 373.9,29.6C440.6,64.4 488.5,126.6 505.4,200.3C506.3,204.1 507,207.3 507,207.6C507,207.8 475.1,208 436,208C373.6,208 365,208.2 365,209.5C365,210.5 363.9,211 361.5,211C358.8,211 358,210.6 358,209.2Z" style="fill:rgb(253,247,197);fill-rule:nonzero;"/>
        <path d="M245,202.1C245,196.7 245.3,195.9 248.1,193.6C252.1,190.2 257.7,190.1 261.7,193.3C263.2,194.6 265.3,195.9 266.3,196.3C268.5,197.1 268.8,204 266.5,204C265.7,204 265,204.9 265,206C265,207.9 264.3,208 255,208L245,208L245,202.1Z" style="fill:rgb(253,247,197);fill-rule:nonzero;"/>
    </g>
    <g>
        <path d="M27.4,369.8C9.4,334 0.9,297.5 0.9,256C0.9,238.4 1.5,231.3 4.6,209.7L5.3,205L76.6,205C126.8,205 148.1,204.7 148.6,203.9C148.9,203.3 150.1,203 151.1,203.3C152.2,203.6 153,203.4 153,202.9C153,202.4 152.6,202 152,202C151.5,202 151,201.5 151,200.9C151,200.3 151.9,200 153,200.3C155.1,200.8 155.9,199.5 153.8,198.8C151.9,198.1 154.1,195.8 156.1,196.3C158.1,196.8 158.8,195.4 156.8,194.8C154.9,194.1 157.1,191.8 159.1,192.3C160.2,192.6 161,192.4 161,191.9C161,191.4 160.5,191 159.9,191C159.3,191 159,190.4 159.3,189.8C159.5,189.1 160.7,188.5 162,188.5C163.3,188.5 164.5,187.9 164.8,187.2C165,186.6 164.7,186 164.1,186C163.5,186 163.3,185.3 163.7,184.4C164,183.5 165,183 166.1,183.3C168.5,184 170.9,181.2 169,180C166.8,178.7 169.8,175.7 172.7,176.3C174.2,176.6 175,176.2 175,175.4C175,174.6 176.1,174 177.5,174C179.1,174 180,174.6 180,175.5C180,176.3 180.6,177 181.3,177C182,177 183.2,177.6 183.9,178.3C184.5,178.9 185.4,179.5 185.8,179.5C187.4,179.5 197.9,189.4 198.4,191.4C198.9,193.1 199.2,193.2 199.9,192.1C200.4,191.3 201.5,191 202.4,191.3C203.3,191.7 204,191.5 204,190.9C204,190.3 205.2,190 206.7,190.2C208.2,190.4 209.5,190 209.7,189.3C210,188.6 209.7,188 209.1,188C208.5,188 208,187.6 208,187C208,186.5 208.6,186 209.4,186C211.8,186 212.3,182.9 209.9,182.3C208.7,181.9 208.1,181.2 208.4,180.3C208.7,179.5 208,178.6 206.6,178.1C204.4,177.2 194,166.4 194.2,165.1C194.5,162.3 193.8,160 192.5,160C191.7,160 191,159.3 191,158.5C191,157.7 191.7,157 192.5,157C194.3,157 194.5,155.4 192.8,154.7C192.1,154.4 192.4,154.1 193.6,154.1C194.7,154 196.2,153.4 196.9,152.8C197.9,151.7 198.1,152.4 197.9,156.2C197.6,160.9 197.7,161.1 205.7,169.3C214.4,178.2 215.9,181.4 214.6,188.6C213.4,194.5 211.1,196 202.7,196L195.4,196L189.2,189.7C185.8,186.3 183,182.9 183,182.3C183,180.3 178.1,180.2 175.6,182.1C174.3,183.2 172.7,184 172.1,184C171.5,184 171,184.9 171,186C171,187.1 170.1,188.5 169,189.2C167.9,189.9 167,190.9 167,191.3C167,191.8 165,194.7 162.6,197.9C156.2,206.2 144,225.1 143.3,227.8C142.9,229.7 144.4,231.8 151.9,239.5L161,248.9L161,255.8C161,265.2 159.1,267 149.6,267C143.2,267 142.5,266.8 138.9,263.5C134.3,259.3 132.8,259.2 130.2,262.5C127.7,265.7 125.5,280.1 126.3,288.4C127.1,296.6 130.5,308.8 134,316.8C135.7,320.3 137,323.9 137,324.6C137,325.4 137.5,326 138,326C138.6,326 139,326.7 139,327.5C139,328.3 139.5,329 140,329C140.6,329 141,329.6 141,330.4C141,331.2 141.7,332 142.5,332.4C143.3,332.7 144,333.4 144,334C144,334.6 145.4,336.3 147,337.7C148.7,339 150,340.8 150,341.5C150,342.3 151.2,343.5 152.8,344.2C154.3,344.9 155.9,346.5 156.5,347.8C157,349 158.3,350 159.2,350C160.2,350 161,350.7 161,351.5C161,352.3 161.9,353 163,353C164.1,353 165,353.5 165,354C165,354.6 165.7,355 166.5,355C167.3,355 168,355.4 168,356C168,357.6 179.1,362.7 188.7,365.6C196.3,368 199.3,368.3 210.5,368.3C221,368.3 224.9,367.9 231,366.1C235.1,364.8 240,363.6 241.8,363.3L245,362.8L245,318L219.5,305.3C205.5,298.3 194,292 194,291.4C194,290.7 193.3,290 192.5,289.6C191.4,289.2 191,287.5 191,283.1C191,278.2 191.4,276.6 193.6,274.1C195.9,271.3 196.7,271 202.1,271C207.6,271 209.4,271.7 226,280L244,289L244,264L227.6,256.1C217.9,251.4 210.7,247.3 210.1,246.1C209.5,245 209,241.3 209,237.7C209,232.2 209.3,231 211.6,228.9C213.8,226.9 215.1,226.5 220.3,226.6C225.5,226.6 227.8,227.3 234.7,230.8C239.3,233.1 243.2,235 243.5,235C243.8,235 244,226.5 244,216.1C244,197.2 244,197.1 246.6,194.1C249,191.2 249.7,191 255.5,191C260.8,191 262.4,191.4 264.7,193.4L267.5,195.8L267.8,215.4C268,226.2 268.3,235 268.5,235C268.7,235 273.1,232.9 278.2,230.4C286.6,226.3 288,225.9 292.9,226.4C300.8,227.1 303,229.6 303,237.7C303,245.4 302.1,247.3 297.8,249.1C296,249.8 294.3,250.7 294,251C292.7,252.6 278.6,259 276.4,259C273.1,259 270,260.7 270,262.5C270,263.3 269.6,264 269,264C268.4,264 268,268.8 268,276.5L268,289L286,280C302.2,271.9 304.5,271 309.6,271C314.4,271 315.5,271.4 318.1,273.9C320.6,276.4 321,277.6 321,282.4C321,285.9 320.5,288.4 319.5,289.4C318.7,290.2 318,291.2 318,291.7C318,292.2 306.1,298.4 291.6,305.5L265.1,318.5L265.1,340.6L265,362.8L268.3,363.3C270,363.6 274.9,364.8 279,366.1C285.1,367.9 289,368.3 299.5,368.3C310.7,368.3 313.7,368 321.3,365.6C338,360.6 350,353.1 362.1,340.2C374.2,327.3 382,311.2 385.1,292.7C387.5,278.7 383.7,260 378.4,260C377.6,260 375.3,261.6 373.1,263.5C369.5,266.8 368.8,267 362.3,267C352.8,267 351,265.2 351,255.6L351,248.9L360.5,239.1L369.9,229.4L363.5,218.9C359.9,213.2 356.5,207.4 355.8,206C355.1,204.6 354,203.1 353.3,202.7C352.6,202.3 352,201.3 352,200.6C352,199.8 351.3,199 350.5,198.6C349.7,198.3 349,197.5 349,196.8C349,196.1 348.1,194.9 347,194.2C345.9,193.5 345,192.5 345,191.9C345,191.3 343.9,189.9 342.5,188.8C341.1,187.7 340,186.3 340,185.7C340,183.6 334.1,180.3 331.5,180.8C330.1,181 329,181.8 329,182.4C329,183 326.4,186.1 323.3,189.2C317.5,194.9 317.5,194.9 309.9,195.6C303,196.2 302.1,196.1 300.2,194.2C297.7,191.7 296.5,186.3 297.5,181.4C297.9,178.8 300,175.8 304.7,170.9C308.4,167.1 312,164 312.7,164C314,164 314.3,162.5 314.1,155.5L313.9,151.5L316.5,154.4C320.9,159.2 318.6,164.2 307,175.4C304.2,178.1 301.7,181.3 301.5,182.4C300.7,185.8 302.4,190.5 304.3,190.2C305.4,190 306,190.6 306,191.7C306,193.2 306.2,193.3 307,192C307.8,190.8 308.3,190.7 310,191.7C312.7,193.4 313.2,193.3 312.6,191.2C311.9,189.1 323.3,178.5 325.4,179.3C326.9,179.9 330,177.1 330,175.2C330,174.5 331.1,174 332.5,174C334.1,174 335,174.6 335,175.5C335,176.6 335.8,177 337.6,176.8C339.3,176.6 340.5,177.1 341.1,178.2C341.6,179.2 342.4,180.8 342.9,181.7C343.4,182.7 344.3,183.4 344.8,183.3C345.4,183.2 346.3,184.4 346.9,186C347.4,187.7 348.5,188.9 349.1,188.8C349.8,188.6 350.7,189.9 351.1,191.5C351.5,193.2 351.8,193.9 351.9,193.2C352.1,190.8 354,193.1 354.1,195.8C354.1,197.3 354.4,197.9 354.7,197.2C355.5,195.2 357,196.9 357,199.8C357,201.9 357.2,202.2 358,201C358.8,199.8 359,200 359,201.8C359,203.1 359.4,203.9 359.9,203.5C360.4,203.2 361.1,203.4 361.5,204C361.9,204.7 386.5,205 434.4,205L506.7,205L507.4,209.7C510.5,231.3 511.1,238.4 511.1,256C511.1,296.5 503.6,329.9 486.4,365.9C481.4,376.4 479.7,379.1 478.4,378.6C477.6,378.3 428.5,378 369.4,378L262,378L262,370.5C262,363.3 261.9,363 259.7,363C258.4,363 256.9,362.5 256.4,362C255.6,361.2 254.5,361.3 252.7,362.1C250.1,363.3 250,363.7 250,370.7L250,378L142.6,378C83.5,378 34.5,378.3 33.6,378.6C32.5,379 30.9,376.8 27.4,369.8ZM262,202.4C262,200.4 262.4,199.9 263.6,200.4C264.4,200.7 264.8,200.6 264.5,200C264.2,199.4 263.4,199 262.8,199C262.3,199 260.5,197.9 258.8,196.5C255.1,193.4 254.9,193.4 251.1,196.6C248.9,198.4 248,200.1 248,202.1L248,205L255,205C261.9,205 262,205 262,202.4Z" style="fill:rgb(254,237,176);fill-rule:nonzero;"/>
        <path d="M205.1,145.3C205.8,144.3 207.1,142.9 207.9,142.2C209.3,141.1 209.3,140.8 208,139.9C206.8,139.1 206.9,139 208.5,139.2C209.6,139.3 211.1,139.1 211.8,138.7C213.7,137.4 213.3,142.6 211.3,145C210.3,146.1 208.3,147 206.7,147C204.1,147 203.9,146.8 205.1,145.3Z" style="fill:rgb(254,237,176);fill-rule:nonzero;"/>
        <path d="M299,141.5C299,139.5 298.5,139 296.5,139C293.1,139 289,134.8 289,131.4C289,129.3 289.3,129 290.3,129.9C291.1,130.5 292,130.7 292.3,130.3C292.7,130 293,130.2 293,130.9C293,132.3 300.9,139.6 301.9,139.3C302.3,139.2 303,140.2 303.7,141.6C304.7,143.8 304.6,144 301.9,144C299.5,144 299,143.6 299,141.5Z" style="fill:rgb(254,237,176);fill-rule:nonzero;"/>
    </g>
    <g>
        <path d="M241,510.8C163.9,507 90.7,465.8 45.8,400.9C38.6,390.5 31,377.7 31,376.1C31,375.3 62.6,375 139,375C234.3,375 247,374.8 247,373.5C247,372.7 247.7,372 248.5,372C249.8,372 250,374.1 250,384.8C250,398.5 251,402 255.1,402C257.3,402 260,399.8 260,398.1C260,397.5 260.5,397 261,397C261.6,397 262,392.2 262,384.5C262,374.1 262.2,372 263.5,372C264.3,372 265,372.7 265,373.5C265,374.8 277.7,375 373,375C449.4,375 481,375.3 481,376.1C481,377.6 473.6,390.2 467.2,399.5C442.9,434.8 411.2,462.9 373.9,482.4C332.2,504.2 289.7,513.3 241,510.8Z" style="fill:rgb(255,231,160);fill-rule:nonzero;"/>
        <path d="M195.8,371C184.2,368.9 163.4,360.8 164.6,358.9C164.9,358.4 164.2,358 163,358C161.8,358 161.1,357.6 161.5,357.1C161.8,356.6 161,356 159.8,355.8C158.5,355.6 157.6,355.1 157.8,354.5C158,354 157.1,353.2 155.8,352.9C154.5,352.6 153.6,351.8 153.7,351.3C154,350.1 151.9,348.2 148.8,346.5C147.6,346 146.8,345.1 146.8,344.5C146.9,343 142.9,339 141.2,339C140.3,339 140,338.4 140.4,337.4C140.8,336.3 140.3,335.6 138.9,335.3C137.7,335 137.1,334.2 137.4,333.4C137.7,332.6 137.3,332 136.4,332C135.4,332 135,331.4 135.4,330.5C135.7,329.6 135.4,329 134.6,329C133.7,329 133.3,328 133.4,326.5C133.6,322.5 137.2,323.3 140.4,328C141.8,330.2 143,332.4 143,332.9C143,333.4 143.7,334 144.5,334.4C145.4,334.7 146,336.2 146,338C146,340.5 146.4,341 148.3,341C151.2,341 153,342.8 153,345.7C153,347.6 153.5,348 156,348C157.8,348 159.3,348.6 159.6,349.5C160,350.3 160.9,351 161.6,351C162.4,351 163.3,351.7 163.6,352.5C164,353.3 164.8,354 165.6,354C166.4,354 167,354.5 167,355C167,355.6 167.4,356 167.9,356C168.5,356 172.6,357.8 177.2,359.9C189.9,365.9 196.4,367.3 211.6,367.2C224.9,367.1 233.2,365.9 233.8,364.1C234,363.5 235.4,363 236.8,363C238.3,363 240.5,362.7 241.8,362.4L244,361.8L244,337.3C244,313.2 244,312.9 246,314C247.9,315 248,316.1 248,337.5L248,360L251.5,358.3C254.5,356.9 255.3,356.8 257.7,358C259.3,358.8 260.8,359.6 261.3,359.8C261.7,360 262,350.1 262,337.8L262,315.4L268,313.2L268,361.8L271.3,362.5C273,362.9 275.9,363.8 277.7,364.6C281.4,366.3 296.3,367.7 306.7,367.3C316.9,367 333,362.5 333,360C333,359.4 333.9,359 335,359C336.1,359 337,358.6 337,358.1C337,357.6 338.8,357 341,356.6C343.2,356.3 345,355.5 345,355C345,354.4 345.7,354 346.5,354C347.3,354 348,353.6 348,353C348,352.5 348.8,352 349.9,352C350.9,352 352,351.1 352.3,350C352.7,348.5 353.7,348 356.5,348C359.8,348 360.1,348.2 358.9,349.6C356.7,352.2 345.9,359.6 339.3,362.9C335.9,364.6 329.1,367.2 324.3,368.7C316.3,371.1 314,371.4 299.5,371.3C283.5,371.3 281.3,371 266.8,366.3C265.6,366 265,366.3 265,367.4C265,368.3 264.3,369 263.5,369C262.7,369 262,368.4 262,367.7C262,365.5 256.4,364 253,365.3C251.4,365.9 250,367 250,367.7C250,368.4 249.3,369 248.5,369C247.7,369 247,368.3 247,367.4C247,365.5 245.4,365.7 234,369C225.6,371.4 204.1,372.6 195.8,371Z" style="fill:rgb(255,231,160);fill-rule:nonzero;"/>
        <path d="M365,339.6C365,336.7 365.4,335.7 367,335.3C368.1,335 369,333.9 369,332.9C369,331.8 369.5,331 370,331C370.6,331 371,330.3 371,329.5C371,328.7 371.7,328 372.5,328C373.4,328 374,327.1 374,325.5C374,323.5 374.5,323 376.6,323C378.6,323 379.1,323.4 378.6,324.7C377.5,327.4 369.3,339.4 367.1,341.4C365,343.3 365,343.3 365,339.6Z" style="fill:rgb(255,231,160);fill-rule:nonzero;"/>
        <path d="M130,317.5C130,316.7 129.2,316 128.3,315.9C127.3,315.9 127,315.6 127.7,315.4C128.4,315.1 128.6,314.2 128.3,313.4C128,312.5 128.5,312 129.9,312C131.6,312 132,312.6 132,315.5C132,317.4 131.6,319 131,319C130.5,319 130,318.3 130,317.5Z" style="fill:rgb(255,231,160);fill-rule:nonzero;"/>
        <path d="M124,295.5C124,294.7 123.3,294 122.5,294C121.7,294 121,293.6 121,293C121,292.5 121.5,292 122,292C122.6,292 123,291.3 123,290.5C123,289.7 123.9,289 125,289C126.7,289 127,289.7 127,293C127,295.9 126.6,297 125.5,297C124.7,297 124,296.3 124,295.5Z" style="fill:rgb(255,231,160);fill-rule:nonzero;"/>
        <path d="M385,293.5C385,290.7 385.4,290 387,290C389.1,290 389.4,291 388.4,294.8C387.4,298.4 385,297.5 385,293.5Z" style="fill:rgb(255,231,160);fill-rule:nonzero;"/>
        <path d="M192.7,291.3C191.9,290.6 191.7,284 192.5,284C193.2,284 197,287.9 197,288.6C197,289 197.8,289.9 198.8,290.6C200.3,291.8 200.1,291.9 196.9,292C194.9,292 193,291.7 192.7,291.3Z" style="fill:rgb(255,231,160);fill-rule:nonzero;"/>
        <path d="M313.5,290.4C315.2,289.1 315.3,288.8 314,288C312.8,287.2 312.9,287 314.7,287C316.3,287 317.2,286.2 317.6,284.5C318.5,280.9 321,281.3 321,285.1C321,290.1 319.4,292 315.2,292C311.7,291.9 311.6,291.9 313.5,290.4Z" style="fill:rgb(255,231,160);fill-rule:nonzero;"/>
        <path d="M144,265.7C144,263.6 144.4,263.4 149.5,263.4C154.6,263.4 155,263.6 155,265.7C155,267.8 154.6,268 149.5,268C144.4,268 144,267.8 144,265.7Z" style="fill:rgb(255,231,160);fill-rule:nonzero;"/>
        <path d="M357,265.7C357,263.6 357.4,263.4 362.5,263.4C367.6,263.4 368,263.6 368,265.7C368,267.8 367.6,268 362.5,268C357.4,268 357,267.8 357,265.7Z" style="fill:rgb(255,231,160);fill-rule:nonzero;"/>
        <path d="M235.3,260.2C231.2,258.2 230,257.1 230,255.3C230,253 230.1,253 233.4,254.4C235.3,255.2 237.1,255.6 237.4,255.2C237.7,254.9 238,255.2 238,255.9C238,256.6 238.5,256.8 239,256.5C239.6,256.2 240,256.4 240,257C240,257.6 240.5,257.8 241,257.5C241.6,257.2 242,257.4 242,258.1C242,258.8 242.3,259.1 242.6,258.8C243.1,258.2 247,261.5 247,262.5C247,263.9 239.8,262.5 235.3,260.2Z" style="fill:rgb(255,231,160);fill-rule:nonzero;"/>
        <path d="M265,262C265,261.5 265.5,261 266.1,261C266.7,261 267,260.4 266.7,259.6C266.1,258 273.2,254.4 275,255.5C275.6,255.9 276.6,255.8 277.3,255.2C278,254.7 279.3,254 280.3,253.7C281.6,253.2 282,253.6 282,255.5C282,257.3 281.5,258 280,258C278.9,258 278,258.4 278,258.8C278,260.1 271.2,263 268,263C266.3,263 265,262.6 265,262Z" style="fill:rgb(255,231,160);fill-rule:nonzero;"/>
        <path d="M136,261C136,260.5 133.9,260.3 130.8,260.7L125.6,261.3L128,258.2C129.8,256.1 131.3,255.2 133,255.3C135.7,255.5 135.9,255.7 140.5,259.4L143.5,261.9L139.8,262C137.7,262 136,261.6 136,261Z" style="fill:rgb(255,231,160);fill-rule:nonzero;"/>
        <path d="M371.3,259.5C372.8,258.2 374,256.6 374,256C374,255 379,255 380,256C380.3,256.3 381.4,257 382.4,257.6C383.5,258.2 384.6,259.2 384.8,260C385.2,261 384.3,261.2 380.6,260.7C377.8,260.3 376,260.4 376,261C376,261.6 374.3,262 372.3,262L368.5,261.9L371.3,259.5Z" style="fill:rgb(255,231,160);fill-rule:nonzero;"/>
        <path d="M285,252.1C285,251.6 286.4,250.6 288,249.8C289.8,249 290.8,248 290.5,247.2C290.2,246.4 290.7,245.9 291.8,246.1C294.9,246.4 296,246 298,244L300,242L300,245.3C300,247.9 299.4,248.9 297.5,249.8C296.1,250.5 294.3,251 293.5,251C292.7,251 292,251.5 292,252C292,252.6 290.4,253 288.5,253C286.6,253 285,252.6 285,252.1Z" style="fill:rgb(255,231,160);fill-rule:nonzero;"/>
        <path d="M197,194.8C197,192.7 197.5,192.5 202.5,192.5C207.5,192.5 208,192.7 208,194.8C208,196.8 207.5,197 202.5,197C197.5,197 197,196.8 197,194.8Z" style="fill:rgb(255,231,160);fill-rule:nonzero;"/>
        <path d="M302.8,196.3C301.5,196 301,194.8 301,192.4C301,189 301,189 302.9,190.9C304.4,192.4 306,192.8 309.4,192.6C311.9,192.4 314.7,191.7 315.5,191C316.8,189.9 317,190.2 317,192.8C317,195 316.5,195.9 314.8,196.4C312.2,197 305.4,197 302.8,196.3Z" style="fill:rgb(255,231,160);fill-rule:nonzero;"/>
    </g>
    <g>
        <path d="M250.1,404.1L247,401.2L247,364.8L244.3,365.5C242.7,365.9 240.7,366.2 239.6,366.2C238.6,366.1 237.2,366.7 236.5,367.4C235.2,368.6 223.3,370.8 218,370.8C216.6,370.8 214.4,370.9 213,371C190.3,372.4 164.1,361.5 147.4,343.8C139,334.9 130.6,321.1 127.6,311.3C127,309.3 127.2,309 129.4,309C131.3,309 132,309.5 132,311C132,312.1 132.4,313 132.8,313C133.3,313 134.4,314.6 135.3,316.5L137,320L247,320L247,340.9C247,363.8 247,363.9 252.8,361.2C255.7,359.8 256.3,359.8 259.3,361.2C265,363.9 265,363.8 265,340.9L265,320L372.9,320L374.5,317C375.4,315.4 376.5,314 377,314C377.6,314 378,312.9 378,311.5C378,309.3 378.4,309 381.6,309C384.8,309 385.1,309.2 384.4,311.3C382.8,316.5 378.8,324.4 374.4,331.2C366.3,343.8 348.2,360 342.2,360C340.9,360 340.2,360.4 340.5,361C340.9,361.6 340,362 338.6,362C337.2,362 336,362.4 336,363C336,365.4 316.2,370.9 307.5,371L300.3,371C291.8,371.4 276.8,369.2 273.6,367.3C273,366.9 272.1,366.5 271.5,366.4C271,366.3 269.3,365.9 267.8,365.5L265,364.8L265,382.4C265,393.1 264.6,400 264,400C263.5,400 263.3,400.7 263.6,401.5C264,402.5 263.6,403 262.5,403C261.6,403 261.2,403.5 261.5,404C261.8,404.6 261.2,405 260.1,405C258.9,405 258,405.5 258,406C258,408.1 253.1,406.9 250.1,404.1Z" style="fill:rgb(254,196,2);fill-rule:nonzero;"/>
    </g>
    <g>
        <path d="M132.3,319.5C131.4,317.6 130.3,316 129.8,316C129.4,316 129,315.2 129,314.2C129,313.2 128.6,312 128.1,311.4C126.5,309.7 123.9,296.9 123.3,288.1C122.7,279.3 124.3,264.2 126.1,260.8C127.3,258.6 129,258.4 129,260.5C129,261.6 130.1,262 133,262C136.3,262 137,261.7 137,260C137,257.2 138.2,257.5 143,261.5C148,265.7 150.8,265.9 154.9,262.4C156.6,261 158,260.3 158,260.9C158,261.7 171.1,262 202.5,262L247,262L247,295L226,284.5C213.7,278.4 203.8,274 202.1,274C196.2,274 192,282.7 195.4,287.5C196.2,288.6 208.1,295.1 221.9,302L247,314.5L247,323L134,323L132.3,319.5Z" style="fill:rgb(253,170,2);fill-rule:nonzero;"/>
        <path d="M265,323L265,314.5L290.1,302C303.9,295.1 315.8,288.6 316.6,287.5C320.1,282.7 315.6,274 309.6,274C308.1,274 297.5,278.7 286,284.5L265,295L265,278.1C265,263 265.2,261.1 266.7,260.5C267.7,260.2 268.6,260.4 268.8,260.9C269.3,262.4 352,262.4 352,261C352,259.3 354.1,259.9 357.2,262.5C361.2,265.9 364,265.6 369.2,261.4C373.2,257.9 373.5,257.9 373.8,259.9C374,261.4 374.9,262 376.6,262C378.5,262 379,261.5 379,259.5C379,256.2 381.4,256.2 384.5,259.5C389.3,264.8 390.3,288 386.4,303.9C385.1,309.3 384.1,311.4 382.6,312C381.4,312.5 381.1,312.9 381.8,312.9C383.8,313 383.2,316.1 381,316.7C379.8,317 378.3,318.5 377.4,320.1L375.9,323L265,323Z" style="fill:rgb(253,170,2);fill-rule:nonzero;"/>
    </g>
    <g>
        <path d="M125.8,262.4C126.4,259.3 130.2,256.7 134,256.8C137.5,256.9 142.6,260 141,261C140.2,261.5 140.5,262.3 142.1,263.4C144.3,264.9 144,265 134.9,265L125.3,265L125.8,262.4Z" style="fill:rgb(253,147,1);fill-rule:nonzero;"/>
        <path d="M155.5,262.3C157.2,260.3 158,258.4 158,255.7C158,252.3 157.1,251 148.5,242.1C137.1,230.1 137,229.6 143.8,218.4C152.4,204.2 153,203.6 153,209L153,212L247,212L247,226.5C247,234.5 246.8,241 246.5,241C246.2,241 240.9,238.5 234.8,235.4C222.2,229.1 218.3,228.4 214.5,232C211.6,234.7 211.1,240.3 213.4,243.5C214.2,244.6 222,249.1 230.9,253.5C255.3,265.6 256.8,265 200,265L152.9,265L155.5,262.3Z" style="fill:rgb(253,147,1);fill-rule:nonzero;"/>
        <path d="M265.2,263.3C265.4,262.1 271.2,258.6 281.4,253.4C290.2,248.9 297.9,244.5 298.7,243.5C300.8,240.5 300.3,234.7 297.8,232.3C293.3,228.3 291.1,228.6 278.1,235C271.4,238.3 265.7,241 265.4,241C265.2,241 265,234.5 265,226.5L265,212L357,212L357,209C357,206.8 357.5,206 358.8,206C361.2,206 373,225.4 373,229.4C373,231.7 371.1,234.3 363.5,242.1C355,250.9 354,252.3 354,255.6C354,257.7 354.7,260.2 355.7,261.2C357,262.6 357,263 355.9,263C354.8,263 354.8,263.2 356,264C357,264.6 341.5,265 311.2,265C267.6,265 264.9,264.9 265.2,263.3Z" style="fill:rgb(253,147,1);fill-rule:nonzero;"/>
        <path d="M370.2,261C372.5,258.8 375.1,256.9 376,256.9C378.9,256.7 381.5,257.2 381.8,258.1C382,258.6 382.7,259 383.3,259C384,259 385.1,259.9 385.7,261C386.8,262.6 386.7,262.8 385.5,262.4C384.7,262 384,262.3 384,262.8C384,263.4 384.8,264.1 385.8,264.3C386.7,264.6 382.7,264.8 376.8,264.9L366.1,265L370.2,261Z" style="fill:rgb(253,147,1);fill-rule:nonzero;"/>
    </g>
    <g>
        <path d="M147,214.4C147,211.7 168.1,182.7 172.6,179.1C174.1,177.9 176.7,177 178.7,177C181.7,177 183.4,178.2 191,185.5C196.5,190.7 200.7,194 202,194C208.3,194 213.5,186.8 210.9,181.8C210.3,180.5 206.2,175.8 201.9,171.4C195.5,164.8 194,162.7 194,160.1C194,156.4 196.8,155.8 198.8,159C200,161 201.1,161 255,161L309.9,161L311.5,158.8C312.9,156.7 312.9,156.5 311.5,156.2C310.7,156 310,155.2 310,154.4C310,153.6 309.6,153 309,153C308.5,153 308,151.7 308,150C308,148.4 308.4,147 308.9,147C309.4,147 311.6,149 313.9,151.5C317.1,155 318,156.7 318,159.6C318,162.8 317,164.2 310.1,171.4C300.7,180.9 299.4,183.6 301.5,188.6C303.1,192.4 307,194.5 311,193.5C312.4,193.1 317.2,189.3 321.6,184.9C328.3,178.4 330.3,177 332.9,177C337.5,177 339,178.1 345.2,185.7C355.9,198.8 362.2,208.3 360.8,209.1C359.8,209.8 359.8,210 361,210C361.9,210 362.6,211 362.6,212.5L362.8,215L265,215L265,207.4C265,200.4 264.8,199.6 262.1,196.9C258,192.8 253.1,192.9 249.6,197.1C247.3,199.8 247,201 247,207.6L247,215L197,215C169.5,215 147,214.7 147,214.4Z" style="fill:rgb(252,126,1);fill-rule:nonzero;"/>
    </g>
    <g>
        <path d="M195.4,161.5C194.5,160 194,158.1 194.4,156.7C195.3,153.1 229.5,122.5 247.4,109.3C254.4,104.1 257.2,103.9 263.1,108.2C278.5,119.3 313.8,150.3 313.3,152.2C313.1,152.6 313.5,153 314.1,153C315.7,153 317.9,156.1 318,158.3C318,159.2 317.4,160 316.7,160C316,160 314.9,160.9 314.2,162C313,164 311.9,164 255,164L197,164L195.4,161.5Z" style="fill:rgb(251,102,0);fill-rule:nonzero;"/>
    </g>
</svg>
